HIERARCHY
ROOT Hips
{
	OFFSET 0.000000 0.000000 0.000000 
	CHANNELS 6 Xposition Yposition Zposition Zrotation Yrotation Xrotation
	JOINT LeftUpLeg
	{
		OFFSET 1.363060 -1.794630 0.839290 
		CHANNELS 3 Zrotation Yrotation Xrotation
		JOINT LeftLeg
		{
			OFFSET 2.448110 -6.726130 0.000000 
			CHANNELS 3 Zrotation Yrotation Xrotation
			JOINT LeftFoot
			{
				OFFSET 2.562200 -7.039590 0.000000 
				CHANNELS 3 Zrotation Yrotation Xrotation
				JOINT LeftToeBase
				{
					OFFSET 0.157640 -0.433110 2.322550 
					CHANNELS 3 Zrotation Yrotation Xrotation
					End Site
					{
						OFFSET 0.000000 0.000000 0.000000 
					}
				}
			}
		}
	}
	JOINT RightUpLeg
	{
		OFFSET -1.305520 -1.794630 0.839290 
		CHANNELS 3 Zrotation Yrotation Xrotation
		JOINT RightLeg
		{
			OFFSET -2.542530 -6.985550 0.000000 
			CHANNELS 3 Zrotation Yrotation Xrotation
			JOINT RightFoot
			{
				OFFSET -2.568260 -7.056230 0.000000 
				CHANNELS 3 Zrotation Yrotation Xrotation
				JOINT RightToeBase
				{
					OFFSET -0.164730 -0.452590 2.363150 
					CHANNELS 3 Zrotation Yrotation Xrotation
					End Site
					{
						OFFSET 0.000000 0.000000 0.000000 
					}
				}
			}
		}
	}
	JOINT Spine
	{
		OFFSET 0.028270 2.035590 -0.193380 
		CHANNELS 3 Zrotation Yrotation Xrotation
		JOINT Spine1
		{
			OFFSET 0.056720 2.048850 -0.042750 
			CHANNELS 3 Zrotation Yrotation Xrotation
			JOINT Neck1
			{
				OFFSET -0.054170 1.746240 0.172020 
				CHANNELS 3 Zrotation Yrotation Xrotation
				JOINT Head
				{
					OFFSET 0.104070 1.761360 -0.123970 
					CHANNELS 3 Zrotation Yrotation Xrotation
					End Site
					{
						OFFSET 0.000000 0.000000 0.000000 
					}
				}
			}
			JOINT LeftArm
			{
				OFFSET 3.362410 1.200890 -0.311210 
				CHANNELS 3 Zrotation Yrotation Xrotation
				JOINT LeftForeArm
				{
					OFFSET 4.983000 -0.000000 -0.000000 
					CHANNELS 3 Zrotation Yrotation Xrotation
					JOINT LeftHand
					{
						OFFSET 3.483560 -0.000000 -0.000000 
						CHANNELS 3 Zrotation Yrotation Xrotation
						JOINT LeftHandIndex1
						{
							OFFSET 0.715260 -0.000000 -0.000000 
							CHANNELS 3 Zrotation Yrotation Xrotation
							End Site
							{
								OFFSET 0.000000 0.000000 0.000000 
							}
						}
					}
				}
			}
			JOINT RightArm
			{
				OFFSET -3.136600 1.374050 -0.404650 
				CHANNELS 3 Zrotation Yrotation Xrotation
				JOINT RightForeArm
				{
					OFFSET -5.241900 -0.000000 -0.000000 
					CHANNELS 3 Zrotation Yrotation Xrotation
					JOINT RightHand
					{
						OFFSET -3.444170 -0.000000 -0.000000 
						CHANNELS 3 Zrotation Yrotation Xrotation
						JOINT RightHandIndex1
						{
							OFFSET -0.622530 -0.000000 -0.000000 
							CHANNELS 3 Zrotation Yrotation Xrotation
							End Site
							{
								OFFSET 0.000000 0.000000 0.000000 
							}
						}
					}
				}
			}
		}
	}
}
MOTION
Frames: 6
Frame Time: 0.041667
-24.768903 16.669382 -0.644682 177.284430 4.864316 -170.454922 -6.057314 19.035872 -41.068063 8.456431 15.690407 49.078797 -1.511394 8.715658 16.782073 2.079500 -9.029700 -25.888400 -3.546813 -14.284169 -36.768902 -7.147674 -13.596249 44.088469 0.846081 -7.293732 16.281349 -1.151700 6.814100 -19.165700 0.265543 2.372764 -2.210415 0.107154 1.854813 1.285461 0.549856 5.276934 2.079324 -2.048300 1.727100 8.674600 -61.519229 -31.791317 32.146980 43.965023 -43.859536 -28.360709 -2.377920 0.140407 -21.570579 -7.125000 0.000000 0.000000 48.122655 29.246948 16.295615 -44.542695 40.750984 -29.849658 2.772359 3.855016 -7.512309 7.125000 0.000000 0.000000 
-24.763320 16.667754 -0.647822 177.330356 4.863770 -170.472589 -5.992847 19.081347 -41.063171 8.478736 15.692812 49.151565 -1.439993 8.570282 16.799798 2.063700 -8.997500 -25.787600 -3.535469 -14.138305 -36.658765 -7.127974 -13.602773 43.996143 0.948096 -7.560467 16.344122 -1.175300 6.881100 -19.363700 0.256696 2.437547 -2.201913 -0.047402 1.899462 1.302478 0.584969 5.177651 2.066343 -2.053400 1.692700 8.640300 -61.309358 -31.751922 32.334659 43.998971 -43.881544 -28.359982 -2.368666 0.123107 -21.977586 -7.125000 0.000000 0.000000 48.050515 29.362636 16.167291 -44.645390 40.761662 -29.968863 2.781671 3.861914 -7.566862 7.125000 0.000000 0.000000 
-24.758901 16.666591 -0.652940 177.350614 4.871125 -170.465878 -5.948645 19.105245 -41.055422 8.478933 15.688633 49.157513 -1.385628 8.469453 16.856908 2.016600 -8.900500 -25.484600 -3.526796 -14.073470 -36.570452 -7.085716 -13.581276 43.855312 0.967218 -7.634893 16.435183 -1.226500 7.024000 -19.786300 0.260916 2.442241 -2.192373 -0.065472 1.899943 1.360125 0.611395 5.169699 2.052347 -2.050700 1.696600 8.611100 -61.176863 -31.669759 32.287724 44.048460 -43.904153 -28.406672 -2.330944 0.092386 -22.002715 -7.125000 0.000000 0.000000 48.023614 29.481173 16.244034 -44.918457 40.865057 -30.218457 2.794137 3.875523 -7.845688 7.125000 0.000000 0.000000 
-24.756342 16.674499 -0.658871 177.370791 4.881964 -170.451957 -5.894621 19.096896 -41.024020 8.462925 15.681470 49.154656 -1.273955 8.253899 16.935888 1.916500 -8.690000 -24.830400 -3.567422 -13.946566 -36.475235 -7.050807 -13.571353 43.760815 0.956722 -7.629799 16.491206 -1.186000 6.911200 -19.452600 0.263712 2.412396 -2.190226 -0.101380 1.883725 1.383888 0.608391 5.176330 2.034500 -2.059700 1.701900 8.596100 -61.086070 -31.623810 32.141561 43.991300 -43.864741 -28.363326 -2.285101 0.061292 -21.853439 -7.125000 0.000000 0.000000 48.135770 29.536511 16.396602 -45.198813 40.993371 -30.473560 2.756319 3.917493 -7.978552 7.125000 0.000000 0.000000 
-24.754016 16.683804 -0.663756 177.387130 4.881074 -170.422992 -5.863860 19.079123 -41.003187 8.449921 15.670632 49.123013 -1.248242 8.205153 16.946606 1.913300 -8.683100 -24.808900 -3.623284 -13.816327 -36.432242 -7.029291 -13.572756 43.736748 0.905808 -7.511704 16.496894 -1.106500 6.683300 -18.780500 0.262421 2.346388 -2.198845 -0.069050 1.844284 1.407846 0.787766 5.187222 2.034366 -1.829400 1.719800 8.648600 -60.892314 -31.559559 31.993515 43.930449 -43.815596 -28.329035 -2.288601 0.032644 -21.957465 -7.125000 0.000000 0.000000 48.104712 29.563916 16.628726 -45.343489 41.054603 -30.581720 2.710370 3.955467 -8.124097 7.125000 0.000000 0.000000 
-24.749480 16.684967 -0.668757 177.383971 4.913891 -170.348330 -5.884835 19.090293 -41.033479 8.442132 15.656384 49.079830 -1.283173 8.272393 16.909563 1.948800 -8.758500 -25.042800 -3.596674 -13.829899 -36.520236 -7.038396 -13.586598 43.793404 0.887032 -7.445786 16.425810 -1.055600 6.532800 -18.338300 0.241433 2.285606 -2.192984 -0.079968 1.816596 1.625199 1.134833 5.194312 2.033111 -1.394900 1.751300 8.760100 -60.493084 -31.569235 31.844721 43.885139 -43.761731 -28.313676 -2.311882 0.014805 -22.418264 -7.125000 0.000000 0.000000 47.934640 29.748356 16.753346 -45.504921 41.074094 -30.687446 2.669139 3.941137 -8.307060 7.125000 0.000000 0.000000 
